<svg width="642" height="398" viewBox="0 0 642 398" fill="none" xmlns="http://www.w3.org/2000/svg">
<rect x="7.18359" y="1.5" width="633.318" height="394.699" rx="46.5" stroke="black" stroke-opacity="0.1" stroke-width="3"/>
<path d="M559.978 143.221C576.509 143.221 590.565 137.41 602.128 125.773C613.692 114.153 619.49 100.026 619.49 83.4083C619.49 66.7909 613.708 52.6803 602.128 41.0432C590.565 29.4227 576.509 23.5958 559.978 23.5958H366.807C350.276 23.5958 336.22 29.4061 324.657 41.0432C313.093 52.6637 307.295 66.7909 307.295 83.4083C307.295 100.026 313.077 114.136 324.657 125.773C336.22 137.394 350.276 143.221 366.807 143.221H559.978Z" fill="#FF5145" stroke="#202124" stroke-width="5.40007" stroke-miterlimit="10"/>
<path d="M542.5 101.238C537.615 96.3405 535.189 90.3974 535.189 83.4251C535.189 76.4528 537.632 70.5097 542.5 65.6125C547.384 60.7153 553.282 58.2584 560.227 58.2584C567.172 58.2584 573.086 60.7153 577.954 65.6125C582.839 70.5097 585.264 76.4528 585.264 83.4251C585.264 90.3974 582.822 96.3405 577.954 101.238C573.086 106.135 567.172 108.592 560.227 108.592C553.282 108.592 547.368 106.135 542.5 101.238Z" fill="#FFBB00" stroke="#202124" stroke-width="5.40007" stroke-miterlimit="10"/>
<path d="M247.8 143.221C264.331 143.221 278.386 137.41 289.95 125.773C301.513 114.153 307.311 100.026 307.311 83.4083C307.311 66.7909 301.53 52.6803 289.95 41.0432C278.386 29.4227 264.331 23.5958 247.8 23.5958H81.8417C65.3107 23.5958 51.2552 29.4061 39.6918 41.0432C28.1284 52.6637 22.3301 66.7909 22.3301 83.4083C22.3301 100.026 28.1118 114.136 39.6918 125.773C51.2552 137.394 65.3107 143.221 81.8417 143.221H247.8Z" fill="#3D8AFF" stroke="#202124" stroke-width="5.40007" stroke-miterlimit="10"/>
<path d="M230.321 101.238C225.436 96.3405 223.011 90.3974 223.011 83.4251C223.011 76.4528 225.453 70.5097 230.321 65.6125C235.205 60.7153 241.103 58.2584 248.048 58.2584C254.993 58.2584 260.907 60.7153 265.775 65.6125C270.66 70.5097 273.086 76.4528 273.086 83.4251C273.086 90.3974 270.643 96.3405 265.775 101.238C260.891 106.135 254.993 108.592 248.048 108.592C241.103 108.592 235.189 106.135 230.321 101.238Z" fill="#FF5145" stroke="#202124" stroke-width="5.40007" stroke-miterlimit="10"/>
<path d="M505.881 263.098C489.35 263.098 475.295 257.287 463.731 245.65C452.168 234.03 446.37 219.903 446.37 203.285C446.37 186.668 452.151 172.557 463.731 160.92C475.295 149.3 489.35 143.473 505.881 143.473H559.977C576.508 143.473 590.563 149.283 602.127 160.92C613.69 172.541 619.488 186.668 619.488 203.285C619.488 219.903 613.707 234.013 602.127 245.65C590.563 257.271 576.508 263.098 559.977 263.098H505.881Z" fill="#E7E9EC" stroke="#202124" stroke-width="5.40007" stroke-miterlimit="10"/>
<path d="M523.376 221.115C528.261 216.217 530.687 210.274 530.687 203.302C530.687 196.33 528.244 190.387 523.376 185.489C518.492 180.592 512.594 178.135 505.649 178.135C498.704 178.135 492.79 180.592 487.922 185.489C483.037 190.387 480.612 196.33 480.612 203.302C480.612 210.274 483.054 216.217 487.922 221.115C492.806 226.012 498.704 228.469 505.649 228.469C512.594 228.469 518.508 226.012 523.376 221.115Z" fill="#38A852" stroke="#202124" stroke-width="5.40007" stroke-miterlimit="10"/>
<path d="M80.708 262.781C64.1604 262.781 50.0908 256.986 38.5159 245.38C26.9409 233.79 21.1368 219.699 21.1368 203.126C21.1368 186.552 26.9243 172.478 38.5159 160.872C50.0908 149.282 64.1604 143.47 80.708 143.47H386.995C403.543 143.47 417.612 149.265 429.187 160.872C440.762 172.462 446.566 186.552 446.566 203.126C446.566 219.699 440.779 233.773 429.187 245.38C417.612 256.97 403.543 262.781 386.995 262.781H80.708Z" fill="#FFBB00" stroke="#202124" stroke-width="5.40007" stroke-miterlimit="10"/>
<path d="M104.231 221.115C109.486 216.217 112.096 210.274 112.096 203.302C112.096 196.33 109.468 190.387 104.231 185.489C98.9759 180.592 92.6304 178.135 85.1589 178.135C77.6874 178.135 71.3241 180.592 66.0869 185.489C60.8318 190.387 58.2221 196.33 58.2221 203.302C58.2221 210.274 60.8496 216.217 66.0869 221.115C71.3241 226.012 77.6874 228.469 85.1589 228.469C92.6304 228.469 98.9937 226.012 104.231 221.115Z" fill="#FF5145" stroke="#202124" stroke-width="5.40007" stroke-miterlimit="10"/>
<path d="M564.144 262.779C579.586 262.779 592.717 268.574 603.519 280.18C614.321 291.77 619.737 305.86 619.737 322.434C619.737 339.008 614.336 353.082 603.519 364.688C592.717 376.278 579.586 382.09 564.144 382.09H323.533C308.091 382.09 294.961 376.295 284.158 364.688C273.356 353.098 267.94 339.008 267.94 322.434C267.94 305.86 273.341 291.787 284.158 280.18C294.961 268.59 308.091 262.779 323.533 262.779H564.144Z" fill="#38A852" stroke="#202124" stroke-width="5.40007" stroke-miterlimit="10"/>
<path d="M329.446 297.426C322.501 297.426 316.586 299.883 311.718 304.78C306.834 309.678 304.408 315.621 304.408 322.593C304.408 329.565 306.85 335.508 311.718 340.406C316.603 345.303 322.501 347.76 329.446 347.76C336.39 347.76 342.305 345.303 347.173 340.406C352.057 335.508 354.483 329.565 354.483 322.593C354.483 315.621 352.041 309.678 347.173 304.78C342.288 299.883 336.39 297.426 329.446 297.426Z" fill="#FF5145" stroke="#202124" stroke-width="5.40007" stroke-miterlimit="10"/>
<path d="M201.055 262.779C219.634 262.779 235.431 268.574 248.427 280.18C261.423 291.77 267.939 305.86 267.939 322.434C267.939 339.008 261.441 353.082 248.427 364.688C235.431 376.278 219.634 382.09 201.055 382.09H90.0658C71.4867 382.09 55.6897 376.295 42.6937 364.688C29.6977 353.098 23.1811 339.008 23.1811 322.434C23.1811 305.86 29.679 291.787 42.6937 280.18C55.6897 268.59 71.4867 262.779 90.0658 262.779H201.055Z" fill="#E7E9EC" stroke="#202124" stroke-width="5.40007" stroke-miterlimit="10"/>
<path d="M82.5573 297.426C75.6126 297.426 69.698 299.883 64.8301 304.78C59.9456 309.678 57.5199 315.621 57.5199 322.593C57.5199 329.565 59.9622 335.508 64.8301 340.406C69.698 345.303 75.6126 347.76 82.5573 347.76C89.502 347.76 95.4166 345.303 100.285 340.406C105.169 335.508 107.595 329.565 107.595 322.593C107.595 315.621 105.152 309.678 100.285 304.78C95.4 299.883 89.502 297.426 82.5573 297.426Z" fill="#38A852" stroke="#202124" stroke-width="5.40007" stroke-miterlimit="10"/>
<path d="M89.4517 70.9091V100H85.929V70.9091H89.4517ZM113.731 100.511C112.348 100.511 111.094 100.251 109.967 99.7301C108.84 99.1998 107.945 98.4375 107.282 97.4432C106.619 96.4394 106.288 95.2273 106.288 93.8068C106.288 92.5568 106.534 91.5436 107.026 90.767C107.519 89.9811 108.177 89.3655 109.001 88.9205C109.825 88.4754 110.734 88.1439 111.728 87.9261C112.732 87.6989 113.74 87.5189 114.754 87.3864C116.079 87.2159 117.154 87.0881 117.978 87.0028C118.811 86.9081 119.417 86.7519 119.796 86.5341C120.184 86.3163 120.379 85.9375 120.379 85.3977V85.2841C120.379 83.8826 119.995 82.7936 119.228 82.017C118.47 81.2405 117.32 80.8523 115.776 80.8523C114.176 80.8523 112.921 81.2027 112.012 81.9034C111.103 82.6042 110.464 83.3523 110.094 84.1477L106.913 83.0114C107.481 81.6856 108.238 80.6534 109.185 79.9148C110.142 79.1667 111.183 78.6458 112.31 78.3523C113.447 78.0492 114.564 77.8977 115.663 77.8977C116.363 77.8977 117.168 77.983 118.077 78.1534C118.996 78.3144 119.881 78.6506 120.734 79.1619C121.595 79.6733 122.31 80.4451 122.879 81.4773C123.447 82.5095 123.731 83.892 123.731 85.625V100H120.379V97.0455H120.208C119.981 97.5189 119.602 98.0256 119.072 98.5653C118.541 99.1051 117.836 99.5644 116.955 99.9432C116.075 100.322 115 100.511 113.731 100.511ZM114.242 97.5C115.568 97.5 116.685 97.2396 117.594 96.7188C118.513 96.1979 119.204 95.5256 119.668 94.7017C120.142 93.8778 120.379 93.0114 120.379 92.1023V89.0341C120.237 89.2045 119.924 89.3608 119.441 89.5028C118.968 89.6354 118.418 89.7538 117.793 89.858C117.178 89.9527 116.576 90.0379 115.989 90.1136C115.412 90.1799 114.943 90.2367 114.583 90.2841C113.712 90.3977 112.897 90.5824 112.14 90.8381C111.392 91.0843 110.786 91.4583 110.322 91.9602C109.867 92.4527 109.64 93.125 109.64 93.9773C109.64 95.142 110.071 96.0227 110.933 96.6193C111.804 97.2064 112.907 97.5 114.242 97.5ZM129.849 100V78.1818H133.088V81.5909H133.372C133.827 80.4261 134.561 79.5218 135.574 78.8778C136.587 78.2244 137.804 77.8977 139.224 77.8977C140.664 77.8977 141.862 78.2244 142.818 78.8778C143.784 79.5218 144.537 80.4261 145.077 81.5909H145.304C145.863 80.464 146.701 79.5691 147.818 78.9062C148.936 78.2339 150.276 77.8977 151.838 77.8977C153.789 77.8977 155.384 78.5085 156.625 79.7301C157.866 80.9422 158.486 82.8314 158.486 85.3977V100H155.134V85.3977C155.134 83.7879 154.693 82.6373 153.812 81.946C152.932 81.2547 151.895 80.9091 150.702 80.9091C149.168 80.9091 147.979 81.3731 147.136 82.3011C146.294 83.2197 145.872 84.3845 145.872 85.7955V100H142.463V85.0568C142.463 83.8163 142.061 82.8172 141.256 82.0597C140.451 81.2926 139.414 80.9091 138.145 80.9091C137.274 80.9091 136.459 81.1411 135.702 81.6051C134.954 82.0691 134.348 82.7131 133.884 83.5369C133.429 84.3513 133.202 85.2936 133.202 86.3636V100H129.849ZM182.286 100.511C180.903 100.511 179.648 100.251 178.521 99.7301C177.394 99.1998 176.5 98.4375 175.837 97.4432C175.174 96.4394 174.842 95.2273 174.842 93.8068C174.842 92.5568 175.089 91.5436 175.581 90.767C176.073 89.9811 176.732 89.3655 177.555 88.9205C178.379 88.4754 179.288 88.1439 180.283 87.9261C181.286 87.6989 182.295 87.5189 183.308 87.3864C184.634 87.2159 185.709 87.0881 186.533 87.0028C187.366 86.9081 187.972 86.7519 188.351 86.5341C188.739 86.3163 188.933 85.9375 188.933 85.3977V85.2841C188.933 83.8826 188.55 82.7936 187.783 82.017C187.025 81.2405 185.875 80.8523 184.331 80.8523C182.731 80.8523 181.476 81.2027 180.567 81.9034C179.658 82.6042 179.018 83.3523 178.649 84.1477L175.467 83.0114C176.036 81.6856 176.793 80.6534 177.74 79.9148C178.696 79.1667 179.738 78.6458 180.865 78.3523C182.001 78.0492 183.119 77.8977 184.217 77.8977C184.918 77.8977 185.723 77.983 186.632 78.1534C187.551 78.3144 188.436 78.6506 189.288 79.1619C190.15 79.6733 190.865 80.4451 191.433 81.4773C192.001 82.5095 192.286 83.892 192.286 85.625V100H188.933V97.0455H188.763C188.536 97.5189 188.157 98.0256 187.626 98.5653C187.096 99.1051 186.391 99.5644 185.51 99.9432C184.629 100.322 183.554 100.511 182.286 100.511ZM182.797 97.5C184.123 97.5 185.24 97.2396 186.149 96.7188C187.068 96.1979 187.759 95.5256 188.223 94.7017C188.696 93.8778 188.933 93.0114 188.933 92.1023V89.0341C188.791 89.2045 188.479 89.3608 187.996 89.5028C187.522 89.6354 186.973 89.7538 186.348 89.858C185.732 89.9527 185.131 90.0379 184.544 90.1136C183.966 90.1799 183.498 90.2367 183.138 90.2841C182.267 90.3977 181.452 90.5824 180.695 90.8381C179.946 91.0843 179.34 91.4583 178.876 91.9602C178.422 92.4527 178.195 93.125 178.195 93.9773C178.195 95.142 178.625 96.0227 179.487 96.6193C180.358 97.2064 181.462 97.5 182.797 97.5Z" fill="white"/>
<path d="M140.29 195.099C140.015 194.238 139.646 193.466 139.182 192.784C138.727 192.093 138.183 191.506 137.548 191.023C136.914 190.53 136.189 190.156 135.375 189.901C134.57 189.645 133.685 189.517 132.719 189.517C131.08 189.517 129.603 189.938 128.287 190.781C126.971 191.624 125.929 192.86 125.162 194.489C124.404 196.108 124.026 198.092 124.026 200.44C124.026 202.798 124.409 204.792 125.176 206.42C125.943 208.049 126.994 209.285 128.33 210.128C129.665 210.971 131.185 211.392 132.889 211.392C134.471 211.392 135.848 211.07 137.023 210.426C138.206 209.782 139.12 208.873 139.764 207.699C140.418 206.515 140.744 205.123 140.744 203.523L141.881 203.736H133.557V200.114H144.991V203.423C144.991 205.866 144.471 207.988 143.429 209.787C142.397 211.577 140.967 212.959 139.139 213.935C137.321 214.91 135.238 215.398 132.889 215.398C130.257 215.398 127.946 214.792 125.957 213.58C123.978 212.367 122.435 210.649 121.327 208.423C120.219 206.188 119.665 203.537 119.665 200.469C119.665 198.149 119.987 196.065 120.631 194.219C121.275 192.372 122.179 190.805 123.344 189.517C124.518 188.22 125.896 187.23 127.477 186.548C129.068 185.857 130.806 185.511 132.69 185.511C134.262 185.511 135.725 185.743 137.08 186.207C138.443 186.671 139.655 187.33 140.716 188.182C141.786 189.034 142.671 190.047 143.372 191.222C144.073 192.386 144.546 193.679 144.793 195.099H140.29ZM159.981 215H150.563V185.909H160.279C163.129 185.909 165.577 186.491 167.623 187.656C169.668 188.812 171.236 190.473 172.325 192.642C173.423 194.801 173.972 197.391 173.972 200.412C173.972 203.442 173.418 206.046 172.31 208.224C171.212 210.402 169.621 212.079 167.538 213.253C165.454 214.418 162.935 215 159.981 215ZM154.952 211.165H159.739C161.955 211.165 163.797 210.748 165.265 209.915C166.733 209.072 167.831 207.855 168.56 206.264C169.29 204.664 169.654 202.713 169.654 200.412C169.654 198.13 169.29 196.193 168.56 194.602C167.841 193.011 166.766 191.804 165.336 190.98C163.906 190.156 162.13 189.744 160.009 189.744H154.952V211.165ZM199.118 195.099C198.843 194.238 198.474 193.466 198.01 192.784C197.555 192.093 197.011 191.506 196.376 191.023C195.742 190.53 195.018 190.156 194.203 189.901C193.398 189.645 192.513 189.517 191.547 189.517C189.909 189.517 188.431 189.938 187.115 190.781C185.799 191.624 184.757 192.86 183.99 194.489C183.232 196.108 182.854 198.092 182.854 200.44C182.854 202.798 183.237 204.792 184.004 206.42C184.771 208.049 185.822 209.285 187.158 210.128C188.493 210.971 190.013 211.392 191.717 211.392C193.299 211.392 194.677 211.07 195.851 210.426C197.035 209.782 197.948 208.873 198.592 207.699C199.246 206.515 199.572 205.123 199.572 203.523L200.709 203.736H192.385V200.114H203.82V203.423C203.82 205.866 203.299 207.988 202.257 209.787C201.225 211.577 199.795 212.959 197.967 213.935C196.149 214.91 194.066 215.398 191.717 215.398C189.085 215.398 186.774 214.792 184.786 213.58C182.806 212.367 181.263 210.649 180.155 208.423C179.047 206.188 178.493 203.537 178.493 200.469C178.493 198.149 178.815 196.065 179.459 194.219C180.103 192.372 181.007 190.805 182.172 189.517C183.346 188.22 184.724 187.23 186.305 186.548C187.896 185.857 189.634 185.511 191.518 185.511C193.09 185.511 194.554 185.743 195.908 186.207C197.271 186.671 198.483 187.33 199.544 188.182C200.614 189.034 201.5 190.047 202.2 191.222C202.901 192.386 203.375 193.679 203.621 195.099H199.118ZM228.827 215.44C226.781 215.44 224.996 214.972 223.472 214.034C221.947 213.097 220.763 211.785 219.92 210.099C219.078 208.414 218.656 206.444 218.656 204.19C218.656 201.927 219.078 199.948 219.92 198.253C220.763 196.558 221.947 195.241 223.472 194.304C224.996 193.366 226.781 192.898 228.827 192.898C230.872 192.898 232.657 193.366 234.182 194.304C235.706 195.241 236.89 196.558 237.733 198.253C238.576 199.948 238.997 201.927 238.997 204.19C238.997 206.444 238.576 208.414 237.733 210.099C236.89 211.785 235.706 213.097 234.182 214.034C232.657 214.972 230.872 215.44 228.827 215.44ZM228.841 211.875C230.167 211.875 231.265 211.525 232.136 210.824C233.008 210.123 233.652 209.19 234.068 208.026C234.494 206.861 234.707 205.578 234.707 204.176C234.707 202.784 234.494 201.506 234.068 200.341C233.652 199.167 233.008 198.224 232.136 197.514C231.265 196.804 230.167 196.449 228.841 196.449C227.506 196.449 226.398 196.804 225.517 197.514C224.646 198.224 223.997 199.167 223.571 200.341C223.154 201.506 222.946 202.784 222.946 204.176C222.946 205.578 223.154 206.861 223.571 208.026C223.997 209.19 224.646 210.123 225.517 210.824C226.398 211.525 227.506 211.875 228.841 211.875ZM247.985 202.045V215H243.738V193.182H247.815V196.733H248.085C248.586 195.578 249.372 194.65 250.442 193.949C251.522 193.248 252.881 192.898 254.519 192.898C256.006 192.898 257.308 193.21 258.425 193.835C259.543 194.451 260.409 195.369 261.025 196.591C261.64 197.812 261.948 199.323 261.948 201.122V215H257.701V201.634C257.701 200.052 257.289 198.816 256.465 197.926C255.641 197.027 254.51 196.577 253.07 196.577C252.085 196.577 251.21 196.79 250.442 197.216C249.685 197.642 249.084 198.267 248.638 199.091C248.203 199.905 247.985 200.89 247.985 202.045ZM302.733 195.369H298.301C298.131 194.422 297.813 193.589 297.349 192.869C296.885 192.15 296.317 191.539 295.645 191.037C294.973 190.535 294.22 190.156 293.386 189.901C292.563 189.645 291.687 189.517 290.759 189.517C289.082 189.517 287.581 189.938 286.256 190.781C284.939 191.624 283.898 192.86 283.131 194.489C282.373 196.117 281.994 198.106 281.994 200.455C281.994 202.822 282.373 204.82 283.131 206.449C283.898 208.078 284.944 209.309 286.27 210.142C287.596 210.975 289.087 211.392 290.744 211.392C291.663 211.392 292.534 211.269 293.358 211.023C294.191 210.767 294.944 210.393 295.616 209.901C296.289 209.408 296.857 208.807 297.321 208.097C297.795 207.377 298.121 206.553 298.301 205.625L302.733 205.639C302.496 207.069 302.037 208.385 301.355 209.588C300.683 210.781 299.816 211.813 298.756 212.685C297.705 213.546 296.502 214.214 295.148 214.688C293.794 215.161 292.316 215.398 290.716 215.398C288.197 215.398 285.953 214.801 283.983 213.608C282.013 212.405 280.46 210.687 279.324 208.452C278.197 206.217 277.634 203.551 277.634 200.455C277.634 197.348 278.202 194.683 279.338 192.457C280.474 190.223 282.027 188.509 283.997 187.315C285.967 186.113 288.206 185.511 290.716 185.511C292.259 185.511 293.699 185.734 295.034 186.179C296.379 186.615 297.586 187.259 298.656 188.111C299.726 188.954 300.612 189.986 301.312 191.207C302.013 192.42 302.487 193.807 302.733 195.369ZM313.994 215.483C312.611 215.483 311.361 215.227 310.244 214.716C309.126 214.195 308.241 213.442 307.587 212.457C306.943 211.473 306.621 210.265 306.621 208.835C306.621 207.604 306.858 206.591 307.332 205.795C307.805 205 308.444 204.37 309.249 203.906C310.054 203.442 310.954 203.092 311.948 202.855C312.942 202.618 313.956 202.438 314.988 202.315C316.295 202.164 317.355 202.041 318.17 201.946C318.984 201.842 319.576 201.676 319.945 201.449C320.315 201.222 320.499 200.852 320.499 200.341V200.241C320.499 199.001 320.149 198.04 319.448 197.358C318.757 196.676 317.725 196.335 316.352 196.335C314.922 196.335 313.795 196.652 312.971 197.287C312.156 197.912 311.593 198.608 311.281 199.375L307.289 198.466C307.763 197.14 308.454 196.07 309.363 195.256C310.281 194.432 311.337 193.835 312.531 193.466C313.724 193.087 314.978 192.898 316.295 192.898C317.166 192.898 318.089 193.002 319.065 193.21C320.049 193.409 320.968 193.778 321.82 194.318C322.682 194.858 323.388 195.63 323.937 196.634C324.486 197.628 324.761 198.92 324.761 200.511V215H320.613V212.017H320.442C320.168 212.566 319.756 213.106 319.207 213.636C318.657 214.167 317.952 214.607 317.09 214.957C316.228 215.308 315.196 215.483 313.994 215.483ZM314.917 212.074C316.091 212.074 317.095 211.842 317.928 211.378C318.771 210.914 319.41 210.308 319.846 209.56C320.291 208.802 320.513 207.992 320.513 207.131V204.318C320.362 204.47 320.068 204.612 319.633 204.744C319.207 204.867 318.719 204.976 318.17 205.071C317.621 205.156 317.085 205.237 316.565 205.312C316.044 205.379 315.608 205.436 315.258 205.483C314.434 205.587 313.681 205.762 312.999 206.009C312.327 206.255 311.787 206.61 311.38 207.074C310.982 207.528 310.783 208.134 310.783 208.892C310.783 209.943 311.172 210.739 311.948 211.278C312.725 211.809 313.714 212.074 314.917 212.074ZM330.418 215V193.182H334.494V196.733H334.764C335.219 195.53 335.962 194.593 336.994 193.92C338.027 193.239 339.262 192.898 340.702 192.898C342.16 192.898 343.382 193.239 344.366 193.92C345.361 194.602 346.095 195.54 346.568 196.733H346.795C347.316 195.568 348.145 194.64 349.281 193.949C350.418 193.248 351.772 192.898 353.344 192.898C355.323 192.898 356.938 193.518 358.188 194.759C359.447 195.999 360.077 197.869 360.077 200.369V215H355.83V200.767C355.83 199.29 355.427 198.22 354.622 197.557C353.817 196.894 352.856 196.562 351.739 196.562C350.356 196.562 349.281 196.989 348.514 197.841C347.747 198.684 347.364 199.768 347.364 201.094V215H343.131V200.497C343.131 199.313 342.761 198.362 342.023 197.642C341.284 196.922 340.323 196.562 339.139 196.562C338.334 196.562 337.591 196.776 336.909 197.202C336.237 197.618 335.692 198.201 335.276 198.949C334.868 199.697 334.665 200.563 334.665 201.548V215H330.418ZM365.769 223.182V193.182H369.917V196.719H370.272C370.518 196.264 370.873 195.739 371.337 195.142C371.801 194.545 372.445 194.025 373.269 193.58C374.093 193.125 375.182 192.898 376.536 192.898C378.298 192.898 379.87 193.343 381.252 194.233C382.635 195.123 383.719 196.406 384.505 198.082C385.3 199.759 385.698 201.776 385.698 204.134C385.698 206.491 385.305 208.513 384.519 210.199C383.733 211.875 382.654 213.168 381.281 214.077C379.907 214.976 378.34 215.426 376.579 215.426C375.253 215.426 374.169 215.204 373.326 214.759C372.493 214.313 371.839 213.793 371.366 213.196C370.892 212.599 370.528 212.069 370.272 211.605H370.016V223.182H365.769ZM369.931 204.091C369.931 205.625 370.154 206.97 370.599 208.125C371.044 209.28 371.688 210.185 372.531 210.838C373.373 211.482 374.406 211.804 375.627 211.804C376.896 211.804 377.957 211.468 378.809 210.795C379.661 210.114 380.305 209.19 380.741 208.026C381.186 206.861 381.408 205.549 381.408 204.091C381.408 202.652 381.191 201.359 380.755 200.213C380.329 199.067 379.685 198.163 378.823 197.5C377.971 196.837 376.906 196.506 375.627 196.506C374.396 196.506 373.354 196.823 372.502 197.457C371.659 198.092 371.02 198.977 370.585 200.114C370.149 201.25 369.931 202.576 369.931 204.091ZM404.278 205.952V193.182H408.539V215H404.363V211.222H404.136C403.634 212.386 402.829 213.357 401.721 214.134C400.622 214.901 399.254 215.284 397.616 215.284C396.214 215.284 394.974 214.976 393.894 214.361C392.824 213.736 391.981 212.812 391.366 211.591C390.76 210.369 390.457 208.859 390.457 207.06V193.182H394.704V206.548C394.704 208.035 395.116 209.219 395.94 210.099C396.763 210.98 397.834 211.42 399.15 211.42C399.945 211.42 400.736 211.222 401.522 210.824C402.317 210.426 402.976 209.825 403.496 209.02C404.027 208.215 404.287 207.192 404.278 205.952ZM430.595 198.509L426.746 199.19C426.585 198.698 426.329 198.229 425.979 197.784C425.638 197.339 425.174 196.974 424.587 196.69C424 196.406 423.266 196.264 422.385 196.264C421.182 196.264 420.179 196.534 419.374 197.074C418.569 197.604 418.166 198.291 418.166 199.134C418.166 199.863 418.436 200.45 418.976 200.895C419.516 201.34 420.387 201.705 421.589 201.989L425.055 202.784C427.063 203.248 428.559 203.963 429.544 204.929C430.529 205.895 431.021 207.15 431.021 208.693C431.021 210 430.643 211.165 429.885 212.188C429.137 213.201 428.09 213.996 426.746 214.574C425.411 215.152 423.862 215.44 422.101 215.44C419.658 215.44 417.664 214.92 416.121 213.878C414.577 212.827 413.63 211.335 413.28 209.403L417.385 208.778C417.641 209.848 418.166 210.658 418.962 211.207C419.757 211.747 420.794 212.017 422.072 212.017C423.464 212.017 424.577 211.728 425.411 211.151C426.244 210.563 426.661 209.848 426.661 209.006C426.661 208.324 426.405 207.751 425.893 207.287C425.392 206.823 424.62 206.473 423.578 206.236L419.885 205.426C417.849 204.962 416.343 204.223 415.368 203.21C414.402 202.197 413.919 200.914 413.919 199.361C413.919 198.073 414.279 196.946 414.999 195.98C415.718 195.014 416.713 194.261 417.982 193.722C419.25 193.172 420.704 192.898 422.342 192.898C424.7 192.898 426.556 193.409 427.911 194.432C429.265 195.445 430.16 196.804 430.595 198.509Z" fill="black"/>
<path d="M409.653 339H404.994L415.463 309.909H420.534L431.003 339H426.344L418.119 315.193H417.892L409.653 339ZM410.435 327.608H425.548V331.301H410.435V327.608ZM435.204 339V309.909H445.573C447.836 309.909 449.711 310.321 451.198 311.145C452.685 311.969 453.798 313.096 454.536 314.526C455.275 315.946 455.644 317.546 455.644 319.327C455.644 321.116 455.27 322.726 454.522 324.156C453.783 325.577 452.666 326.704 451.17 327.537C449.683 328.361 447.813 328.773 445.559 328.773H438.428V325.051H445.161C446.591 325.051 447.751 324.805 448.641 324.312C449.531 323.811 450.185 323.129 450.602 322.267C451.018 321.405 451.227 320.425 451.227 319.327C451.227 318.228 451.018 317.253 450.602 316.401C450.185 315.548 449.527 314.881 448.627 314.398C447.737 313.915 446.563 313.673 445.104 313.673H439.593V339H435.204ZM476.656 317.551C476.505 316.206 475.88 315.165 474.781 314.426C473.683 313.678 472.3 313.304 470.634 313.304C469.44 313.304 468.408 313.493 467.537 313.872C466.666 314.241 465.989 314.753 465.506 315.406C465.032 316.05 464.795 316.784 464.795 317.608C464.795 318.299 464.956 318.896 465.278 319.398C465.61 319.9 466.041 320.321 466.571 320.662C467.111 320.993 467.688 321.273 468.304 321.5C468.92 321.718 469.511 321.898 470.08 322.04L472.92 322.778C473.848 323.006 474.8 323.313 475.776 323.702C476.751 324.09 477.655 324.601 478.489 325.236C479.322 325.87 479.994 326.656 480.506 327.594C481.027 328.531 481.287 329.653 481.287 330.96C481.287 332.608 480.861 334.071 480.009 335.349C479.166 336.628 477.939 337.636 476.33 338.375C474.729 339.114 472.793 339.483 470.52 339.483C468.342 339.483 466.457 339.137 464.866 338.446C463.276 337.755 462.03 336.775 461.131 335.506C460.231 334.227 459.734 332.712 459.639 330.96H464.043C464.128 332.011 464.469 332.887 465.065 333.588C465.671 334.279 466.443 334.795 467.381 335.136C468.328 335.468 469.365 335.634 470.491 335.634C471.732 335.634 472.835 335.439 473.801 335.051C474.777 334.653 475.544 334.104 476.102 333.403C476.661 332.693 476.94 331.865 476.94 330.918C476.94 330.056 476.694 329.35 476.202 328.801C475.719 328.252 475.061 327.797 474.227 327.438C473.403 327.078 472.471 326.76 471.429 326.486L467.991 325.548C465.662 324.914 463.815 323.981 462.452 322.75C461.098 321.519 460.42 319.89 460.42 317.864C460.42 316.187 460.875 314.724 461.784 313.474C462.693 312.224 463.924 311.254 465.477 310.562C467.03 309.862 468.782 309.511 470.733 309.511C472.703 309.511 474.44 309.857 475.946 310.548C477.461 311.24 478.654 312.191 479.526 313.403C480.397 314.606 480.851 315.989 480.889 317.551H476.656ZM490.921 309.909V339H486.532V309.909H490.921ZM495.879 313.688V309.909H518.393V313.688H509.316V339H504.941V313.688H495.879Z" fill="white"/>
<path d="M328.068 100V78.1818H331.307V81.5909H331.591C332.045 80.4261 332.779 79.5218 333.793 78.8778C334.806 78.2244 336.023 77.8977 337.443 77.8977C338.883 77.8977 340.08 78.2244 341.037 78.8778C342.003 79.5218 342.756 80.4261 343.295 81.5909H343.523C344.081 80.464 344.92 79.5691 346.037 78.9062C347.154 78.2339 348.494 77.8977 350.057 77.8977C352.008 77.8977 353.603 78.5085 354.844 79.7301C356.084 80.9422 356.705 82.8314 356.705 85.3977V100H353.352V85.3977C353.352 83.7879 352.912 82.6373 352.031 81.946C351.151 81.2547 350.114 80.9091 348.92 80.9091C347.386 80.9091 346.198 81.3731 345.355 82.3011C344.512 83.2197 344.091 84.3845 344.091 85.7955V100H340.682V85.0568C340.682 83.8163 340.279 82.8172 339.474 82.0597C338.67 81.2926 337.633 80.9091 336.364 80.9091C335.492 80.9091 334.678 81.1411 333.92 81.6051C333.172 82.0691 332.566 82.7131 332.102 83.5369C331.648 84.3513 331.42 85.2936 331.42 86.3636V100H328.068ZM371.982 100.455C369.879 100.455 368.066 99.9905 366.541 99.0625C365.026 98.125 363.857 96.8182 363.033 95.142C362.218 93.4564 361.811 91.4962 361.811 89.2614C361.811 87.0265 362.218 85.0568 363.033 83.3523C363.857 81.6383 365.002 80.303 366.47 79.3466C367.947 78.3807 369.671 77.8977 371.641 77.8977C372.777 77.8977 373.899 78.0871 375.007 78.4659C376.115 78.8447 377.124 79.4602 378.033 80.3125C378.942 81.1553 379.666 82.2727 380.206 83.6648C380.746 85.0568 381.016 86.7708 381.016 88.8068V90.2273H364.197V87.3295H377.607C377.607 86.0985 377.36 85 376.868 84.0341C376.385 83.0682 375.694 82.3059 374.794 81.7472C373.904 81.1884 372.853 80.9091 371.641 80.9091C370.305 80.9091 369.15 81.2405 368.175 81.9034C367.209 82.5568 366.465 83.4091 365.945 84.4602C365.424 85.5114 365.163 86.6383 365.163 87.8409V89.7727C365.163 91.4205 365.447 92.8172 366.016 93.9631C366.593 95.0994 367.393 95.9659 368.416 96.5625C369.439 97.1496 370.627 97.4432 371.982 97.4432C372.862 97.4432 373.658 97.3201 374.368 97.0739C375.088 96.8182 375.708 96.4394 376.229 95.9375C376.75 95.4261 377.152 94.7917 377.436 94.0341L380.675 94.9432C380.334 96.0417 379.761 97.0076 378.956 97.8409C378.151 98.6648 377.157 99.3087 375.973 99.7727C374.789 100.227 373.459 100.455 371.982 100.455ZM386.115 100V78.1818H389.354V81.5909H389.638C390.092 80.4261 390.826 79.5218 391.839 78.8778C392.853 78.2244 394.07 77.8977 395.49 77.8977C396.929 77.8977 398.127 78.2244 399.084 78.8778C400.05 79.5218 400.803 80.4261 401.342 81.5909H401.57C402.128 80.464 402.966 79.5691 404.084 78.9062C405.201 78.2339 406.541 77.8977 408.104 77.8977C410.054 77.8977 411.65 78.5085 412.891 79.7301C414.131 80.9422 414.751 82.8314 414.751 85.3977V100H411.399V85.3977C411.399 83.7879 410.959 82.6373 410.078 81.946C409.197 81.2547 408.161 80.9091 406.967 80.9091C405.433 80.9091 404.245 81.3731 403.402 82.3011C402.559 83.2197 402.138 84.3845 402.138 85.7955V100H398.729V85.0568C398.729 83.8163 398.326 82.8172 397.521 82.0597C396.716 81.2926 395.679 80.9091 394.411 80.9091C393.539 80.9091 392.725 81.1411 391.967 81.6051C391.219 82.0691 390.613 82.7131 390.149 83.5369C389.695 84.3513 389.467 85.2936 389.467 86.3636V100H386.115ZM421.335 100V70.9091H424.688V81.6477H424.972C425.218 81.2689 425.559 80.786 425.994 80.1989C426.439 79.6023 427.074 79.072 427.898 78.608C428.731 78.1345 429.858 77.8977 431.278 77.8977C433.116 77.8977 434.735 78.357 436.136 79.2756C437.538 80.1941 438.632 81.4962 439.418 83.1818C440.204 84.8674 440.597 86.8561 440.597 89.1477C440.597 91.4583 440.204 93.4612 439.418 95.1562C438.632 96.8419 437.543 98.1487 436.151 99.0767C434.759 99.9953 433.153 100.455 431.335 100.455C429.934 100.455 428.812 100.223 427.969 99.7585C427.126 99.285 426.477 98.75 426.023 98.1534C425.568 97.5473 425.218 97.0455 424.972 96.6477H424.574V100H421.335ZM424.631 89.0909C424.631 90.7386 424.872 92.1922 425.355 93.4517C425.838 94.7017 426.544 95.6818 427.472 96.392C428.4 97.0928 429.536 97.4432 430.881 97.4432C432.282 97.4432 433.452 97.0739 434.389 96.3352C435.336 95.5871 436.046 94.5833 436.52 93.3239C437.003 92.0549 437.244 90.6439 437.244 89.0909C437.244 87.5568 437.008 86.1742 436.534 84.9432C436.07 83.7027 435.365 82.7225 434.418 82.0028C433.48 81.2737 432.301 80.9091 430.881 80.9091C429.517 80.9091 428.371 81.2547 427.443 81.946C426.515 82.6278 425.814 83.5843 425.341 84.8153C424.867 86.0369 424.631 87.4621 424.631 89.0909ZM454.872 100.455C452.77 100.455 450.956 99.9905 449.432 99.0625C447.917 98.125 446.747 96.8182 445.923 95.142C445.109 93.4564 444.702 91.4962 444.702 89.2614C444.702 87.0265 445.109 85.0568 445.923 83.3523C446.747 81.6383 447.893 80.303 449.361 79.3466C450.838 78.3807 452.562 77.8977 454.531 77.8977C455.668 77.8977 456.79 78.0871 457.898 78.4659C459.006 78.8447 460.014 79.4602 460.923 80.3125C461.832 81.1553 462.557 82.2727 463.097 83.6648C463.636 85.0568 463.906 86.7708 463.906 88.8068V90.2273H447.088V87.3295H460.497C460.497 86.0985 460.251 85 459.759 84.0341C459.276 83.0682 458.584 82.3059 457.685 81.7472C456.795 81.1884 455.743 80.9091 454.531 80.9091C453.196 80.9091 452.041 81.2405 451.065 81.9034C450.099 82.5568 449.356 83.4091 448.835 84.4602C448.314 85.5114 448.054 86.6383 448.054 87.8409V89.7727C448.054 91.4205 448.338 92.8172 448.906 93.9631C449.484 95.0994 450.284 95.9659 451.307 96.5625C452.33 97.1496 453.518 97.4432 454.872 97.4432C455.753 97.4432 456.548 97.3201 457.259 97.0739C457.978 96.8182 458.598 96.4394 459.119 95.9375C459.64 95.4261 460.043 94.7917 460.327 94.0341L463.565 94.9432C463.224 96.0417 462.652 97.0076 461.847 97.8409C461.042 98.6648 460.047 99.3087 458.864 99.7727C457.68 100.227 456.349 100.455 454.872 100.455ZM469.006 100V78.1818H472.244V81.4773H472.472C472.869 80.3977 473.589 79.5218 474.631 78.8494C475.672 78.1771 476.847 77.8409 478.153 77.8409C478.4 77.8409 478.707 77.8456 479.077 77.8551C479.446 77.8646 479.725 77.8788 479.915 77.8977V81.3068C479.801 81.2784 479.541 81.2358 479.134 81.179C478.736 81.1127 478.314 81.0795 477.869 81.0795C476.809 81.0795 475.862 81.3021 475.028 81.7472C474.205 82.1828 473.551 82.7888 473.068 83.5653C472.595 84.3324 472.358 85.2083 472.358 86.1932V100H469.006ZM504.002 100.455C502.032 100.455 500.304 99.9858 498.817 99.0483C497.34 98.1108 496.185 96.7992 495.352 95.1136C494.528 93.428 494.116 91.4583 494.116 89.2045C494.116 86.9318 494.528 84.9479 495.352 83.2528C496.185 81.5578 497.34 80.2415 498.817 79.304C500.304 78.3665 502.032 77.8977 504.002 77.8977C505.972 77.8977 507.695 78.3665 509.173 79.304C510.659 80.2415 511.815 81.5578 512.638 83.2528C513.472 84.9479 513.888 86.9318 513.888 89.2045C513.888 91.4583 513.472 93.428 512.638 95.1136C511.815 96.7992 510.659 98.1108 509.173 99.0483C507.695 99.9858 505.972 100.455 504.002 100.455ZM504.002 97.4432C505.498 97.4432 506.729 97.0597 507.695 96.2926C508.661 95.5256 509.376 94.517 509.84 93.267C510.304 92.017 510.536 90.6629 510.536 89.2045C510.536 87.7462 510.304 86.3873 509.84 85.1278C509.376 83.8684 508.661 82.8504 507.695 82.0739C506.729 81.2973 505.498 80.9091 504.002 80.9091C502.506 80.9091 501.275 81.2973 500.309 82.0739C499.343 82.8504 498.628 83.8684 498.164 85.1278C497.7 86.3873 497.468 87.7462 497.468 89.2045C497.468 90.6629 497.7 92.017 498.164 93.267C498.628 94.517 499.343 95.5256 500.309 96.2926C501.275 97.0597 502.506 97.4432 504.002 97.4432ZM528.722 78.1818V81.0227H516.96V78.1818H528.722ZM520.483 100V75.1705C520.483 73.9205 520.777 72.8788 521.364 72.0455C521.951 71.2121 522.713 70.5871 523.651 70.1705C524.588 69.7538 525.578 69.5455 526.619 69.5455C527.443 69.5455 528.116 69.6117 528.636 69.7443C529.157 69.8769 529.545 70 529.801 70.1136L528.835 73.0114C528.665 72.9545 528.428 72.8835 528.125 72.7983C527.831 72.7131 527.443 72.6705 526.96 72.6705C525.852 72.6705 525.052 72.9498 524.56 73.5085C524.077 74.0672 523.835 74.8864 523.835 75.9659V100H520.483Z" fill="white"/>
</svg>
